<svg data-v-0dd9719b="" version="1.0" xmlns="http://www.w3.org/2000/svg" xmlns:xlink="http://www.w3.org/1999/xlink" width="100%" height="100%" viewBox="0 0 340.000000 250.000000" preserveAspectRatio="xMidYMid meet" color-interpolation-filters="sRGB" style="margin: auto;"> <rect data-v-0dd9719b="" x="0" y="0" width="100%" height="100%" fill="#ffffff" fill-opacity="1" class="background"></rect> <rect data-v-0dd9719b="" x="0" y="0" width="100%" height="100%" fill="url(#watermark)" fill-opacity="1" class="watermarklayer"></rect> <g data-v-0dd9719b="" fill="#171e60" class="icon-text-wrapper icon-svg-group iconsvg" transform="translate(48.54999542236328,90.36196517944336)"><g class="iconsvg-imagesvg" transform="translate(0,0)"><g><rect fill="#171e60" fill-opacity="0" stroke-width="2" x="0" y="0" width="60" height="69.27606511950121" class="image-rect"></rect> <svg filter="url(#colors9672830292)" x="0" y="0" width="60" height="69.27606511950121" filtersec="colorsf4309285361" class="image-svg-svg primary" style="overflow: visible;"><svg xmlns="http://www.w3.org/2000/svg" viewBox="0 0 86.61000061035156 100"><path d="M79.24 70.86L36.06 95.78l7.23 4.22 43.18-25zM86.61 58L43.43 33.12v8.34l43.18 24.93zm0-33.06v8.35L65 20.83l-7.21-4.16-14.45-8.32V0l14.41 8.32L65 12.48l14.31 8.26 7.3 4.26zm0 16.53v8.35L43.43 24.93v-8.35L65 29l13 7.53zM7.23 70.65V20.8L0 25v49.83l7.23-4.18zm28.63-16.53l-7.23 4.18v-50l7.23-4.17v50zm-14.31 8.27l-7.24 4.17V16.71l7.24-4.18v49.86zm29.06-8.07l7.23 4.18L36.19 71 29 75.16l-14.4 8.32-7.26-4.17L21.75 71 29 66.82l14.31-8.26 7.34-4.24zm14.31 8.27l7.24 4.18L29 91.69l-7.23-4.17 21.5-12.43 13-7.53 8.61-5z" fill="#333"></path></svg></svg> <defs><filter id="colors9672830292"><feColorMatrix type="matrix" values="0 0 0 0 0.0390625  0 0 0 0 0.3359375  0 0 0 0 0.578125  0 0 0 1 0" class="icon-fecolormatrix"></feColorMatrix></filter> <filter id="colorsf4309285361"><feColorMatrix type="matrix" values="0 0 0 0 0.99609375  0 0 0 0 0.99609375  0 0 0 0 0.99609375  0 0 0 1 0" class="icon-fecolormatrix"></feColorMatrix></filter> <filter id="colorsb6088501224"><feColorMatrix type="matrix" values="0 0 0 0 0  0 0 0 0 0  0 0 0 0 0  0 0 0 1 0" class="icon-fecolormatrix"></feColorMatrix></filter></defs></g></g> <g transform="translate(67,21.998035430908203)"><g data-gra="path-name" fill-rule="" class="tp-name iconsvg-namesvg"><g transform="scale(1)"><g><path d="M11.65-21.57L5.82-21.57 5.82-14.03 11.65-14.03Q16.81-13.9 16.68-18L16.68-18Q16.68-21.57 11.65-21.57L11.65-21.57ZM12.97 0L2.51 0 2.51-24.22 13.24-24.22Q19.72-23.96 19.99-18.13L19.99-18.13Q19.99-14.56 16.81-13.1L16.81-13.1Q21.31-11.51 21.31-7.15L21.31-7.15Q20.91-0.26 12.97 0L12.97 0ZM12.18-11.25L5.82-11.25 5.82-2.78 12.84-2.78Q17.87-2.91 18-7.15L18-7.15Q18-11.25 12.18-11.25L12.18-11.25ZM44.21-12.04L44.21-12.04Q43.68-21.57 35.74-22.1L35.74-22.1Q27.66-21.71 27.26-12.04L27.26-12.04Q27.66-2.65 35.74-2.25L35.74-2.25Q43.68-2.78 44.21-12.04ZM47.51-12.04L47.51-12.04Q46.72 0 35.74 0.4L35.74 0.4Q24.62 0 23.82-12.04L23.82-12.04Q24.49-24.62 35.74-24.88L35.74-24.88Q46.72-24.49 47.51-12.04ZM69.09-17.21L69.09-17.21 66.04-17.21Q65.78-21.84 59.96-22.1L59.96-22.1Q54.53-21.97 54.53-17.87L54.53-17.87Q54.53-15.22 57.44-14.82L57.44-14.82 64.32-13.24Q69.75-11.91 69.75-6.62L69.75-6.62Q69.62 0.13 60.22 0.4L60.22 0.4Q55.06 0.4 52.94-1.72L52.94-1.72Q50.29-3.71 50.43-7.81L50.43-7.81 53.6-7.81Q53.74-2.25 60.22-2.12L60.22-2.12Q66.57-2.25 66.71-6.22L66.71-6.22Q67.24-9.53 61.41-10.59L61.41-10.59 56.38-11.65Q51.22-13.1 51.22-17.47L51.22-17.47Q51.62-24.62 59.69-24.88L59.69-24.88Q68.82-24.88 69.09-17.21ZM91.59-17.21L91.59-17.21 88.54-17.21Q88.28-21.84 82.46-22.1L82.46-22.1Q77.03-21.97 77.03-17.87L77.03-17.87Q77.03-15.22 79.94-14.82L79.94-14.82 86.82-13.24Q92.25-11.91 92.25-6.62L92.25-6.62Q92.12 0.13 82.72 0.4L82.72 0.4Q77.56 0.4 75.44-1.72L75.44-1.72Q72.79-3.71 72.93-7.81L72.93-7.81 76.1-7.81Q76.24-2.25 82.72-2.12L82.72-2.12Q89.07-2.25 89.21-6.22L89.21-6.22Q89.74-9.53 83.91-10.59L83.91-10.59 78.88-11.65Q73.72-13.1 73.72-17.47L73.72-17.47Q74.12-24.62 82.19-24.88L82.19-24.88Q91.32-24.88 91.59-17.21ZM119.65-24.22L119.65 0 116.47 0 116.47-14.29Q116.47-16.28 116.47-20.38L116.47-20.38 109.59 0 106.28 0 99.53-20.38 99.4-20.38Q99.4-18.93 99.53-16.01L99.53-16.01Q99.53-14.56 99.53-14.29L99.53-14.29 99.53 0 96.22 0 96.22-24.22 100.99-24.22 108-3.71 114.88-24.22 119.65-24.22ZM124.94-24.22L128.25-24.22 128.25 0 124.94 0 124.94-24.22ZM137.78-24.22L149.96-4.63 149.96-24.22 153.13-24.22 153.13 0 149.43 0 137.12-19.59 136.99-19.59 136.99 0 133.81 0 133.81-24.22 137.78-24.22ZM168.09 0L158.29 0 158.29-24.22 168.22-24.22Q178.01-23.69 178.41-12.44L178.41-12.44Q177.88-0.26 168.09 0L168.09 0ZM167.69-21.57L161.6-21.57 161.6-2.78 167.96-2.78Q174.84-3.18 175.1-12.18L175.1-12.18Q174.97-21.31 167.69-21.57L167.69-21.57Z" transform="translate(-2.509999990463257, 24.8799991607666)"></path></g> <!----> <!----> <!----> <!----> <!----> <!----> <!----></g></g> <!----></g></g><defs v-gra="od"></defs></svg>